Coordinates
version=1
nRows=27
nColumns=12
inDegrees=yes

Units are S.I. units (second, meters, Newtons, ...)
Angles are in degrees

endheader
time	SC_y	SC_z	SC_x	AC_y	AC_z	AC_x	GH_y	GH_z	GH_yy	EL_x	PS_y
       0.0              -15.99         -1.693          48.41          64.78         -14.49           18.0         -102.7          64.81         -123.8          85.94          26.94
   0.04748               -16.0         -1.693          48.41          64.78         -14.49          17.99         -102.6          64.81         -123.8          85.93          26.95
   0.09496               -16.0         -1.692          48.41          64.77         -14.49          17.99         -102.6          64.81         -123.8          85.92          26.95
    0.1424               -16.0         -1.692          48.42          64.77         -14.48          17.99         -102.6           64.8         -123.8          85.92          26.95
    0.1899              -16.01         -1.691          48.42          64.77         -14.48          17.99         -102.6           64.8         -123.8          85.91          26.96
    0.2374              -16.01         -1.691          48.42          64.76         -14.48          17.98         -102.6           64.8         -123.8           85.9          26.96
    0.2849              -16.01          -1.69          48.42          64.76         -14.47          17.98         -102.6           64.8         -123.8          85.89          26.96
    0.3324              -16.02          -1.69          48.43          64.75         -14.47          17.98         -102.5          64.79         -123.8          85.88          26.97
    0.3799              -16.02         -1.689          48.43          64.75         -14.46          17.97         -102.5          64.79         -123.8          85.87          26.97
    0.4273              -16.03         -1.688          48.43          64.74         -14.46          17.97         -102.5          64.79         -123.8          85.86          26.98
    0.4748              -16.03         -1.687          48.43          64.74         -14.45          17.96         -102.5          64.78         -123.8          85.84          26.98
    0.5223              -16.04         -1.686          48.44          64.73         -14.45          17.96         -102.4          64.78         -123.8          85.83          26.99
    0.5698              -16.04         -1.685          48.44          64.72         -14.44          17.95         -102.4          64.78         -123.8          85.81          26.99
    0.6173              -16.05         -1.684          48.45          64.71         -14.43          17.95         -102.4          64.77         -123.8           85.8           27.0
    0.6647              -16.06         -1.683          48.45          64.71         -14.43          17.94         -102.3          64.77         -123.8          85.78           27.0
    0.7122              -16.06         -1.682          48.46           64.7         -14.42          17.94         -102.3          64.76         -123.8          85.76          27.01
    0.7597              -16.07         -1.681          48.46          64.69         -14.41          17.93         -102.3          64.76         -123.8          85.74          27.02
    0.8072              -16.08         -1.679          48.47          64.68          -14.4          17.92         -102.2          64.75         -123.8          85.72          27.03
    0.8547              -16.09         -1.678          48.47          64.66         -14.39          17.91         -102.2          64.75         -123.8           85.7          27.04
    0.9022               -16.1         -1.676          48.48          64.65         -14.38           17.9         -102.1          64.74         -123.8          85.67          27.05
    0.9496              -16.11         -1.674          48.49          64.64         -14.37          17.89         -102.1          64.73         -123.8          85.64          27.06
    0.9971              -16.13         -1.672           48.5          64.62         -14.36          17.88         -102.0          64.72         -123.8          85.61          27.07
     1.045              -16.14          -1.67          48.51          64.61         -14.34          17.87         -101.9          64.71         -123.8          85.57          27.08
     1.092              -16.16         -1.668          48.52          64.59         -14.32          17.86         -101.8           64.7         -123.8          85.53           27.1
      1.14              -16.17         -1.665          48.53          64.57         -14.31          17.84         -101.7          64.69         -123.8          85.49          27.11
     1.187              -16.19         -1.662          48.54          64.54         -14.29          17.82         -101.7          64.68         -123.8          85.44          27.13
     1.235              -16.22         -1.658          48.55          64.52         -14.26          17.81         -101.5          64.66         -123.8          85.39          27.15
